# File created by Blade
# Date/Time:  Tue Jan 27 17:21:37 2015
# Frame Rate: 120.000 fps
#------------------------------------------------------
:FULLY-SPECIFIED
:DEGREES
4461
root 2.379160 36.940177 0.668098 4.638367 -6.501308 -0.451988
Spine -5.955777 6.219362 2.068610
Head -4.140996 0.777868 -0.172335
LeftShoulder -7.494407 -10.464837 13.117231
LeftArm -3.447645 -21.071113 -25.196212
LeftForeArm 26.901503 -0.000000 24.256319
LeftHand -20.539114 -0.000000 8.593196
LeftHandThumb1 -26.253704 0.000000 33.147579
RightShoulder -8.354173 -9.430339 -14.119561
RightArm 1.811874 25.560856 27.203196
RightForeArm 180.514365 0.000000 24.172091
RightHand 1.397241 0.000000 7.889995
RightHandThumb1 -24.326973 -0.000000 -32.862282
LeftUpLeg -1.379519 6.456542 2.476479
LeftLeg 9.056373 -0.000000 -0.000000
LeftFoot -19.237676 2.809038 -18.375425
LeftToeBase 13.858217 -0.000000 -0.000000
RightUpLeg -3.811268 -9.657336 -3.450096
RightLeg 10.935228 -0.000000 -0.000000
RightFoot -14.570160 -0.159000 9.324052
RightToeBase 3.689588 -0.000000 -0.000000
4462
root 2.356657 36.942520 0.646634 4.705241 -6.371822 -0.427755
Spine -5.929467 6.185632 2.093201
Head -4.232725 0.657122 -0.065882
LeftShoulder -7.524969 -10.501259 13.322697
LeftArm -3.007989 -20.589596 -25.125685
LeftForeArm 27.185206 -0.000000 23.059736
LeftHand -20.055989 -0.000000 7.817161
LeftHandThumb1 -26.253704 0.000000 33.147579
RightShoulder -8.332466 -9.210899 -14.532436
RightArm 1.659091 25.938919 26.766504
RightForeArm 180.528494 -0.000000 23.797937
RightHand 1.431276 0.000000 8.312264
RightHandThumb1 -24.326973 -0.000000 -32.862282
LeftUpLeg -1.456462 6.426834 2.497715
LeftLeg 8.964867 -0.000000 -0.000000
LeftFoot -19.128038 2.718378 -18.412257
LeftToeBase 13.906970 -0.000000 -0.000000
RightUpLeg -3.877539 -9.779700 -3.409081
RightLeg 10.900708 -0.000000 -0.000000
RightFoot -14.561373 -0.185240 9.272522
RightToeBase 3.683856 -0.000000 -0.000000
4463
root 2.334817 36.945118 0.623401 4.795880 -6.260495 -0.391987
Spine -5.928139 6.175468 2.078159
Head -4.365533 0.509587 0.080805
LeftShoulder -7.527580 -10.621229 13.575192
LeftArm -2.704632 -20.083931 -25.068799
LeftForeArm 27.458726 0.000000 22.056482
LeftHand -19.957601 0.000000 7.223487
LeftHandThumb1 -26.253704 0.000000 33.147579
RightShoulder -8.285206 -9.018854 -14.891044
RightArm 1.509931 26.434812 26.348410
RightForeArm 180.310068 -0.000000 23.378343
RightHand 1.363508 0.000000 8.488910
RightHandThumb1 -24.326973 -0.000000 -32.862282
LeftUpLeg -1.574083 6.399882 2.499880
LeftLeg 8.903163 -0.000000 -0.000000
LeftFoot -19.016103 2.653720 -18.434953
LeftToeBase 13.889997 -0.000000 -0.000000
RightUpLeg -4.010955 -9.880149 -3.370836
RightLeg 10.947103 -0.000000 -0.000000
RightFoot -14.588098 -0.244059 9.206611
RightToeBase 3.730219 -0.000000 -0.000000
4464
root 2.316894 36.948282 0.590042 5.010893 -6.193709 -0.343334
Spine -6.077247 6.192049 2.040761
Head -4.436696 0.396048 0.194161
LeftShoulder -7.563832 -10.604565 13.752319
LeftArm -2.308868 -19.630848 -24.955346
LeftForeArm 27.714563 -0.000000 21.097558
LeftHand -19.498140 -0.000000 5.780071
LeftHandThumb1 -26.253704 0.000000 33.147579
RightShoulder -8.265514 -8.903026 -15.249616
RightArm 1.441383 26.918448 26.012217
RightForeArm 180.158259 -0.000000 22.996758
RightHand 1.394627 0.000000 8.532149
RightHandThumb1 -24.326973 -0.000000 -32.862282
LeftUpLeg -1.833884 6.398662 2.464319
LeftLeg 8.853035 -0.000000 -0.000000
LeftFoot -18.912497 2.625405 -18.440249
LeftToeBase 13.901578 -0.000000 -0.000000
RightUpLeg -4.313633 -9.929212 -3.329919
RightLeg 11.030762 -0.000000 -0.000000
RightFoot -14.618850 -0.307349 9.136737
RightToeBase 3.755434 -0.000000 -0.000000
4465
root 2.296473 36.949946 0.567918 5.045265 -6.084613 -0.311634
Spine -5.998715 6.173032 2.048207
Head -4.552646 0.289447 0.292706
LeftShoulder -7.556751 -10.677413 13.936923
LeftArm -2.014300 -19.082875 -24.862655
LeftForeArm 27.831329 -0.000000 20.244871
LeftHand -18.958496 -0.000000 5.178653
LeftHandThumb1 -26.253704 0.000000 33.147579
RightShoulder -8.209864 -8.717037 -15.606474
RightArm 1.282471 27.346296 25.660892
RightForeArm 180.083945 -0.000000 22.627517
RightHand 1.336138 -0.000000 8.612177
RightHandThumb1 -24.326973 -0.000000 -32.862282
LeftUpLeg -1.889575 6.394624 2.474470
LeftLeg 8.786056 -0.000000 -0.000000
LeftFoot -18.806834 2.540348 -18.440934
LeftToeBase 13.927676 -0.000000 -0.000000
RightUpLeg -4.391596 -10.020151 -3.303212
RightLeg 11.084037 -0.000000 -0.000000
RightFoot -14.636109 -0.350708 9.086116
RightToeBase 3.729497 -0.000000 -0.000000
4466
root 2.275668 36.951759 0.541488 5.081637 -5.957035 -0.292697
Spine -5.892206 6.160354 2.070900
Head -4.739920 0.167943 0.396629
LeftShoulder -7.548577 -10.763037 14.112934
LeftArm -1.739119 -18.609031 -24.788884
LeftForeArm 28.061368 -0.000000 19.495663
LeftHand -18.678371 -0.000000 4.048463
LeftHandThumb1 -26.253704 0.000000 33.147579
RightShoulder -8.193533 -8.538220 -15.941674
RightArm 1.148509 27.800322 25.345527
RightForeArm 179.986143 -0.000000 22.260748
RightHand 1.334349 -0.000000 8.561719
RightHandThumb1 -24.326973 -0.000000 -32.862282
LeftUpLeg -1.958532 6.357193 2.504605
LeftLeg 8.733873 -0.000000 -0.000000
LeftFoot -18.743525 2.405264 -18.553598
LeftToeBase 14.086340 -0.000000 -0.000000
RightUpLeg -4.482812 -10.107167 -3.260749
RightLeg 11.153575 -0.000000 -0.000000
RightFoot -14.671287 -0.413211 9.012453
RightToeBase 3.760581 -0.000000 -0.000000
4467
root 2.257262 36.954958 0.511696 5.191309 -5.820898 -0.239336
Spine -5.897173 6.112293 2.037359
Head -4.857043 0.058808 0.523903
LeftShoulder -7.544778 -10.803827 14.274354
LeftArm -1.486193 -18.151577 -24.680080
LeftForeArm 28.085934 0.000000 18.870580
LeftHand -18.395296 -0.000000 3.077385
LeftHandThumb1 -26.253704 0.000000 33.147579
RightShoulder -8.134710 -8.374966 -16.244671
RightArm 1.012610 28.237961 25.044756
RightForeArm 179.788411 -0.000000 21.874743
RightHand 1.274078 -0.000000 8.564899
RightHandThumb1 -24.326973 -0.000000 -32.862282
LeftUpLeg -2.108977 6.229151 2.477979
LeftLeg 8.661906 -0.000000 -0.000000
LeftFoot -18.613149 2.469276 -18.489625
LeftToeBase 13.982302 -0.000000 -0.000000
RightUpLeg -4.664840 -10.183203 -3.241692
RightLeg 11.240970 -0.000000 -0.000000
RightFoot -14.700899 -0.482614 8.972707
RightToeBase 3.732811 -0.000000 -0.000000
4468
root 2.237076 36.956000 0.486911 5.247280 -5.698258 -0.208134
Spine -5.827795 6.114270 2.026040
Head -5.019165 -0.065669 0.633913
LeftShoulder -7.519059 -10.811899 14.418940
LeftArm -1.216309 -17.644231 -24.584015
LeftForeArm 28.173894 -0.000000 18.288442
LeftHand -18.072218 0.000000 2.185172
LeftHandThumb1 -26.253704 0.000000 33.147579
RightShoulder -8.164695 -8.273229 -16.494415
RightArm 1.015147 28.670903 24.774271
RightForeArm 179.591048 -0.000000 21.414535
RightHand 1.292064 -0.000000 8.756692
RightHandThumb1 -24.326973 -0.000000 -32.862282
LeftUpLeg -2.200855 6.225759 2.489282
LeftLeg 8.615760 -0.000000 -0.000000
LeftFoot -18.509375 2.365485 -18.502899
LeftToeBase 14.000166 -0.000000 -0.000000
RightUpLeg -4.780123 -10.208037 -3.210093
RightLeg 11.320873 -0.000000 -0.000000
RightFoot -14.745266 -0.592346 8.940799
RightToeBase 3.742973 -0.000000 -0.000000
4469
root 2.214869 36.957845 0.462118 5.275572 -5.562530 -0.183801
Spine -5.706413 6.103458 2.029009
Head -5.243687 -0.174113 0.721415
LeftShoulder -7.508667 -10.859415 14.542233
LeftArm -0.967796 -17.143357 -24.478748
LeftForeArm 28.183228 -0.000000 17.815046
LeftHand -17.649324 0.000000 1.234837
LeftHandThumb1 -26.253704 0.000000 33.147579
RightShoulder -8.127042 -8.062542 -16.773808
RightArm 0.820507 29.036107 24.492507
RightForeArm 179.369485 -0.000000 21.047367
RightHand 1.223138 -0.000000 8.546246
RightHandThumb1 -24.326973 -0.000000 -32.862282
LeftUpLeg -2.271251 6.233626 2.516003
LeftLeg 8.579042 -0.000000 -0.000000
LeftFoot -18.398893 2.214662 -18.522177
LeftToeBase 14.033893 -0.000000 -0.000000
RightUpLeg -4.863703 -10.262690 -3.171076
RightLeg 11.397782 -0.000000 -0.000000
RightFoot -14.772249 -0.694114 8.883363
RightToeBase 3.721951 -0.000000 -0.000000
4470
root 2.194421 36.959155 0.434076 5.334226 -5.384357 -0.158667
Spine -5.622376 6.027496 2.042279
Head -5.417432 -0.283301 0.787715
LeftShoulder -7.528743 -10.884460 14.672866
LeftArm -0.727834 -16.682264 -24.406951
LeftForeArm 28.043787 -0.000000 17.476994
LeftHand -17.511739 -0.000000 0.157528
LeftHandThumb1 -26.253704 0.000000 33.147579
RightShoulder -8.090120 -7.881244 -17.058738
RightArm 0.665634 29.391152 24.281558
RightForeArm 179.313252 -0.000000 20.704376
RightHand 1.246430 -0.000000 8.269670
RightHandThumb1 -24.326973 -0.000000 -32.862282
LeftUpLeg -2.398352 6.137437 2.536203
LeftLeg 8.577124 -0.000000 -0.000000
LeftFoot -18.320645 2.150938 -18.503737
LeftToeBase 14.062158 -0.000000 -0.000000
RightUpLeg -4.980195 -10.329041 -3.126323
RightLeg 11.482657 -0.000000 -0.000000
RightFoot -14.819787 -0.825120 8.808563
RightToeBase 3.743639 -0.000000 -0.000000
